#!OML:ASF G:\JayActor3\Patient Classification 1\Patient 1\Session 6\male.ASF
:FULLY-SPECIFIED
:DEGREES
1035
root 5.21177 15.9549 -22.2036 155.562 -51.3521 -158.931
lowerback -4.14636 3.41035 5.40504
upperback 7.00584 3.84167 0.586891
thorax 10.1316 2.15392 -1.90169
lowerneck 16.4461 -5.29963 -3.48902
upperneck -10.7105 -6.31045 13.853
head -5.36163 -4.12848 5.56477
rclavicle 3.06128e-014 -3.18055e-015
rhumerus 9.87037 17.6669 -29.8698
rradius 138.836
rwrist -46.7078
rhand -32.9957 -27.6349
rfingers 7.12502
rthumb -6.21005 -57.5238
lclavicle 3.06128e-014 -3.18055e-015
lhumerus -49.6587 30.4067 66.247
lradius 11.7966
lwrist 13.3071
lhand -7.25214 12.6913
lfingers 7.12502
lthumb 18.6283 41.8194
rfemur 0.370759 -14.9695 36.4797
rtibia 30.0426
rfoot -28.993 -17.0866
rtoes 5.9406
lfemur -16.669 0.539511 5.96226
ltibia 53.8226
lfoot -14.4845 -1.81776
ltoes -15.6449
1036
root 5.18648 15.9516 -22.1911 156.001 -50.6635 -159.335
lowerback -4.35487 3.28891 5.4275
upperback 6.88154 3.66629 0.674012
thorax 10.0975 2.06643 -1.83885
lowerneck 16.3866 -5.17797 -3.47415
upperneck -11.0828 -6.13595 13.5655
head -5.49238 -4.02579 5.46926
rclavicle 7.11649e-014 3.18055e-014
rhumerus 10.5694 17.1576 -29.5101
rradius 138.524
rwrist -46.3149
rhand -32.9086 -27.4157
rfingers 7.12502
rthumb -6.12599 -57.3071
lclavicle 7.11649e-014 3.18055e-014
lhumerus -49.6236 30.3199 66.4631
lradius 11.6608
lwrist 12.8507
lhand -6.82674 12.7391
lfingers 7.12502
lthumb 19.0374 41.8274
rfemur 0.344688 -14.7843 36.2991
rtibia 30.2384
rfoot -28.7711 -16.6804
rtoes 5.69717
lfemur -15.8632 0.284444 5.93277
ltibia 53.3512
lfoot -14.0469 -1.89159
ltoes -16.1303
1037
root 5.15964 15.9473 -22.1787 156.416 -49.9794 -159.706
lowerback -4.57028 3.16318 5.47103
upperback 6.75153 3.48251 0.764557
thorax 10.0626 1.97622 -1.78561
lowerneck 16.3282 -5.06393 -3.45462
upperneck -11.4558 -5.97647 13.2439
head -5.6231 -3.92707 5.36266
rclavicle 2.04748e-014 1.74931e-014
rhumerus 11.2714 16.6515 -29.1607
rradius 138.216
rwrist -45.9229
rhand -32.8124 -27.1846
rfingers 7.12502
rthumb -6.03311 -57.0787
lclavicle 2.04748e-014 1.74931e-014
lhumerus -49.5396 30.1456 66.7275
lradius 11.5777
lwrist 12.4988
lhand -6.50236 12.7327
lfingers 7.12502
lthumb 19.3494 41.7901
rfemur 0.30491 -14.6146 36.1213
rtibia 30.4498
rfoot -28.5591 -16.2573
rtoes 5.44986
lfemur -15.0499 0.0309051 5.87223
ltibia 52.8165
lfoot -13.7929 -1.98889
ltoes -16.9253
1038
root 5.13139 15.9419 -22.1662 156.796 -49.2927 -160.035
lowerback -4.78175 3.03381 5.53024
upperback 6.61765 3.29065 0.87097
thorax 10.021 1.88219 -1.72627
lowerneck 16.2617 -4.96135 -3.42755
upperneck -11.829 -5.83849 12.8749
head -5.75194 -3.83396 5.24023
rclavicle -3.50855e-014 -6.36111e-015
rhumerus 11.9868 16.1512 -28.8113
rradius 137.914
rwrist -45.5556
rhand -32.7281 -26.9383
rfingers 7.12502
rthumb -5.95169 -56.8347
lclavicle -3.50855e-014 -6.36111e-015
lhumerus -49.4161 29.9064 67.0326
lradius 11.5459
lwrist 12.2473
lhand -6.29343 12.7008
lfingers 7.12502
lthumb 19.5503 41.7378
rfemur 0.255813 -14.4579 35.9568
rtibia 30.6759
rfoot -28.3521 -15.8275
rtoes 5.18665
lfemur -14.2289 -0.212189 5.79307
ltibia 52.2268
lfoot -13.8107 -2.04021
ltoes -17.8993
1039
root 5.10162 15.9358 -22.154 157.162 -48.6022 -160.353
lowerback -4.99175 2.90444 5.59486
upperback 6.48425 3.09704 0.983336
thorax 9.97947 1.78722 -1.66453
lowerneck 16.2046 -4.86701 -3.38783
upperneck -12.2196 -5.71484 12.4695
head -5.88792 -3.74514 5.10576
rclavicle -8.87574e-014 3.02153e-014
rhumerus 12.7174 15.6588 -28.4731
rradius 137.618
rwrist -45.2117
rhand -32.6539 -26.671
rfingers 7.12502
rthumb -5.88009 -56.5694
lclavicle -8.87574e-014 3.02153e-014
lhumerus -49.259 29.6257 67.3443
lradius 11.5586
lwrist 12.0723
lhand -6.20253 12.6529
lfingers 7.12502
lthumb 19.6376 41.681
rfemur 0.205762 -14.3135 35.7822
rtibia 30.9145
rfoot -28.1466 -15.394
rtoes 4.89355
lfemur -13.3887 -0.436508 5.67521
ltibia 51.5846
lfoot -14.129 -1.94825
ltoes -18.9682
1040
root 5.07078 15.929 -22.142 157.507 -47.9033 -160.655
lowerback -5.19296 2.77787 5.66952
upperback 6.35252 2.90508 1.10266
thorax 9.93556 1.69315 -1.60168
lowerneck 16.1466 -4.78163 -3.33038
upperneck -12.6237 -5.60656 12.028
head -6.02822 -3.66103 4.95803
rclavicle -7.53394e-014 6.67916e-014
rhumerus 13.4436 15.1607 -28.1394
rradius 137.331
rwrist -44.907
rhand -32.5872 -26.3726
rfingers 7.12502
rthumb -5.81565 -56.2728
lclavicle -7.53394e-014 6.67916e-014
lhumerus -49.0774 29.3452 67.6119
lradius 11.5966
lwrist 11.936
lhand -6.22735 12.5922
lfingers 7.12502
lthumb 19.6138 41.6228
rfemur 0.154577 -14.1661 35.612
rtibia 31.1609
rfoot -27.9474 -14.9722
rtoes 4.5806
lfemur -12.5363 -0.637123 5.53415
ltibia 50.9012
lfoot -14.6931 -1.67265
ltoes -19.9554
